<svg xmlns="http://www.w3.org/2000/svg" xmlns:xlink="http://www.w3.org/1999/xlink" viewBox="0 0 557.45 368.5">
  <title>Dankort</title>
  <defs>
    <path id="5" d="M40.07 25.19H521.3v318.12H40.07z"/>
  </defs>
  <clipPath id="1">
    <use overflow="visible" xlink:href="#5"/>
  </clipPath>
  <g clip-path="url(#1)">
    <defs>
      <path id="7" d="M40.07 25.19H521.3v318.12H40.07z"/>
    </defs>
    <clipPath id="2">
      <use overflow="visible" xlink:href="#7"/>
    </clipPath>
    <path clip-path="url(#2)" fill="#fff" d="M185.05 42.19c-78.34 0-142.07 63.73-142.07 142.05 0 78.34 63.73 142.07 142.07 142.07h191.33c78.33 0 142.05-63.73 142.05-142.07 0-78.33-63.73-142.05-142.05-142.05H185.05z"/>
    <path clip-path="url(#2)" fill="#fff" d="M376.39 329.2H185.05c-79.93 0-144.96-65.02-144.96-144.95 0-79.92 65.03-144.94 144.96-144.94h191.33c79.92 0 144.94 65.02 144.94 144.94S456.31 329.2 376.39 329.2M185.05 42.19c-78.34 0-142.07 63.73-142.07 142.05 0 78.34 63.73 142.07 142.07 142.07h191.33c78.33 0 142.05-63.73 142.05-142.07 0-78.33-63.73-142.05-142.05-142.05H185.05z"/>
    <path clip-path="url(#2)" fill="#e31f28" d="M409.83 175.57l63.62 75.67c13.18-19.04 20.92-42.13 20.92-66.99 0-26.24-8.62-50.51-23.17-70.13l-61.37 61.45zm-180.29-67.84c47.51 0 83.31 12.09 87 52.12l50-52.13h99.57c-21.66-25.35-53.85-41.46-89.73-41.46H185.05c-35.89 0-68.09 16.1-89.75 41.46h134.24zm-78.28 50.46l-16.97 46.65h68.46c20.24 0 26.36-8.38 30.89-24.51 4.48-15.95-6.78-22.14-20.61-22.14h-61.77zm215.7 99.42l-52.89-66.83c-9.78 45.57-41.79 66.83-101.8 66.83H92.69c21.63 27.18 55 44.65 92.36 44.65h191.33c37.36 0 70.71-17.45 92.34-44.64H366.96z"/>
  </g>
</svg>
