<svg xmlns="http://www.w3.org/2000/svg" viewBox="0 0 460 77">
  <title>Discover</title>
  <path fill="#000" d="M20.764 2.26H0v72.269h20.494c11.059 0 18.877-2.429 25.889-8.36 8.09-6.74 13.212-16.989 13.212-27.776 0-21.3-15.911-36.133-38.831-36.133zm16.45 54.471c-4.583 3.777-10.25 5.664-19.416 5.664h-3.774V14.664h3.774c9.166 0 14.561 1.618 19.416 5.662 4.853 4.313 7.821 11.058 7.821 18.067-.003 7.012-2.968 14.024-7.821 18.338zm28.854 17.801h14.021V2.26H66.068v72.272zm48.537-44.496c-8.63-3.235-11.056-5.122-11.056-9.169 0-4.583 4.583-7.818 10.517-7.818 4.313 0 7.82 1.618 11.325 5.662l7.551-9.436c-6.203-5.394-13.482-8.09-21.303-8.09-12.943 0-22.651 8.899-22.651 20.763 0 9.978 4.583 14.833 17.799 19.686 5.664 1.887 8.36 3.235 9.708 4.044 2.965 1.889 4.313 4.583 4.313 7.551 0 5.933-4.583 10.247-11.056 10.247-6.473 0-12.134-3.505-15.372-9.708l-8.896 8.899c6.473 9.436 14.291 13.752 25.077 13.752 14.56 0 24.81-9.708 24.81-23.73-.003-11.597-4.855-16.722-20.766-22.653zm25.08 8.357c0 21.303 16.719 37.753 38.289 37.753 5.934 0 11.326-1.08 17.529-4.046V55.38c-5.664 5.662-10.517 8.09-16.99 8.09-14.021 0-24.268-10.516-24.268-25.079 0-13.752 10.517-24.808 23.729-24.808 6.743 0 11.865 2.426 17.529 8.09V5.223C189.569 1.986 184.447.64 178.244.64c-21.303.003-38.559 16.992-38.559 37.753z"/>
  <path fill="#DB8135" d="M239.459.643c-21.305 0-38.564 16.72-38.564 37.211 0 22.114 16.45 38.292 38.564 38.292 21.567 0 38.56-16.45 38.56-37.753.002-21.03-16.72-37.75-38.56-37.75z"/>
  <path fill="#000" d="M309.838 50.8L290.692 2.26H275.05l30.744 74.156h7.551L344.626 2.26h-15.372L309.838 50.8zm41.261 23.732h39.909V62.395H365.12V42.979h24.807V30.575H365.12V14.664h25.888V2.26h-39.909v72.272zm95.728-50.969c0-13.482-9.172-21.303-25.617-21.303h-20.766v72.269h14.021V45.675h1.888l19.415 28.854h17.259l-22.651-30.474c10.514-2.154 16.451-9.436 16.451-20.492zM418.509 35.7h-4.044V13.588h4.314c8.899 0 13.479 3.775 13.479 10.787.003 7.279-4.577 11.325-13.749 11.325zm38.813-22.651l-2.096-2.633c.895-.23 1.411-.885 1.411-1.785 0-1.246-.875-1.95-2.429-1.95h-2.029v6.368h1.503v-2.465l1.785 2.465h1.855zM460 9.853c0-3.041-2.473-5.548-5.476-5.548l-.036-.001c-3.031 0-5.526 2.495-5.526 5.526v.023c3.003-.003 5.476-2.507 5.476-5.557L460 9.853zm-1.12.016c0 2.497-1.963 4.544-4.382 4.544-2.434 0-4.436-2.036-4.436-4.544 0-2.536 1.984-4.552 4.436-4.552 2.419 0 4.382 2.047 4.382 4.552z"/>
</svg>
