<svg viewBox="0 0 188 76" version="1.1" xmlns="http://www.w3.org/2000/svg" >
    <title>InterPay</title>
    <path stroke="none" stroke-width="1" fill-rule="nonzero" d="M6.517,0.923 L0.834,46.33 L9.359,46.33 L14.573,4.436 L6.517,0.923 Z M24.114,46.33 L26.233,29.133 C27.028,22.776 29.568,19.777 31.635,19.777 C33.127,19.777 33.841,20.918 33.945,22.528 C34.028,23.787 33.949,24.868 33.796,26.021 L31.281,46.33 L39.807,46.33 L42.277,26.401 C42.558,24.14 42.73,22.092 42.606,20.193 C42.339,16.095 40.312,12.798 35.554,12.798 C31.961,12.798 28.914,14.55 26.757,17.73 L26.622,17.73 L26.713,13.353 L19.394,13.353 C19.117,16.48 18.852,20.203 18.355,24.101 L15.59,46.33 L24.114,46.33 Z M50.665,7.508 L49.926,13.353 L46.014,13.353 L45.292,19.444 L49.142,19.444 L47.246,34.479 C47.006,36.228 46.9,38.012 47,39.551 C47.288,43.934 49.976,46.756 55.083,46.756 C56.716,46.756 58.687,46.711 60.148,46.227 L60.746,39.809 C59.926,39.942 59.082,39.93 58.44,39.944 C56.867,39.944 55.805,39.178 55.671,37.176 C55.628,36.492 55.667,35.412 55.789,34.268 L57.646,19.445 L63.949,19.445 L64.686,13.354 L58.433,13.354 L59.513,4.762 L50.665,7.508 L50.665,7.508 Z M84.808,38.4 C82.687,39.394 80.631,40.095 77.7,40.095 C75.301,40.095 73.695,39.099 72.85,37.683 C72.097,36.537 71.996,34.838 72.036,33.896 C81.837,34.178 89.363,30.835 89.363,21.873 C89.315,17.218 86.401,12.797 80.117,12.797 C69.16,12.797 63.533,24.637 63.533,34.261 C63.533,41.411 66.857,46.755 75.345,46.755 C79.215,46.755 82.291,46.155 85.381,44.855 L84.808,38.4 L84.808,38.4 Z M81.561,22.619 C81.561,26.012 77.709,27.704 72.873,27.527 C73.802,22.903 76.193,19.62 79.005,19.62 C80.712,19.62 81.561,20.72 81.561,22.553 L81.561,22.619 Z M98.557,46.33 L100.381,31.347 C101.061,25.708 104.174,21.381 108.037,21.381 C108.484,21.381 109.129,21.433 109.422,21.484 L110.49,12.951 C110.031835,12.8440451 109.562453,12.792675 109.092,12.798 C106.174,12.798 103.272,14.777 101.149,18.968 L100.909,18.968 C101.022,16.923 101.032,15.133 101.04,13.353 L93.732,13.353 C93.502,16.416 93.268,20.327 92.79,24.188 L90.029,46.33 L98.557,46.33 L98.557,46.33 Z" id="Shape" fill="#357693" />
    <path stroke="none" stroke-width="1" fill-rule="nonzero" d="M157.268,54.506 C157.006,50.865 157.184,44.492 157.715,40.629 L160.168,22.354 C158.008,21.591 154.598,20.975 151.232,20.975 C136.906,20.975 132.642,34.967 133.304,45.053 C133.689,50.928 136.45,55.061 141.353,55.061 C144.064,55.061 147.214,53.366 149.576,48.883 L149.808,48.883 C149.828,50.904 149.829,52.713 149.878,54.506 L157.268,54.506 L157.268,54.506 Z M149.719,38.162 C148.914,44.34 146.846,48.033 144.531,48.033 C142.377,48.033 141.74,45.953 141.578,43.041 C141.293,38.094 143.693,27.333 149.295,27.333 C149.791,27.333 150.436,27.404 151.111,27.555 L149.719,38.162 L149.719,38.162 Z M162.15,21.473 L167.904,52.485 C168.019,53.126 167.945,53.491 167.789,53.934 C167.098,55.788 166.387,56.858 164.881,58.7 C163.766,60.063 161.697,61.548 158.641,63.179 L167.496,67.202 C172.066,62.595 175.396,56.708 178.767,47.231 L187.921,21.473 L179.316,21.473 L175.216,36.65 C174.306,40.172 173.778,42.379 173.271,45.006 L173.136,45.006 C173.001,42.608 172.759,40.33 172.474,37.196 L171.072,21.473 L162.15,21.473 L162.15,21.473 Z M122.967,20.915 C128.86,20.83 130.629,26.205 130.967,31.395 C131.692,42.433 126.449,55.06 116.688,55.06 C115.096,55.06 113.389,54.769 112.409,54.222 L112.223,54.222 L110.09,75.831 L101.309,71.841 L106.123,36.117 C106.879,30.512 109.918,26.151 113.779,26.151 C114.226,26.151 114.873,26.202 115.168,26.254 L115.77,21.435 C118.321,20.852 120.163,20.957 122.967,20.915 Z M119.43,28.203 C117.152,28.203 114.975,31.68 114.455,35.894 L114.455,35.894 L113.012,47.849 C113.766,48.345 114.534,48.704 115.6,48.704 C120.738,48.704 122.67,37.834 122.334,32.764 C122.188,30.513 121.723,28.203 119.43,28.203 Z" id="Shape" fill="#000000"/>
</svg>
