<svg xmlns="http://www.w3.org/2000/svg" viewBox="0 0 200 156">
  <title>Maestro</title>
  <path fill="#0099df" d="M198.191 100.128V97.73h-.625l-.723 1.646-.719-1.646h-.629v2.397h.445V98.32l.675 1.56h.46l.676-1.564v1.812zm-3.965 0v-1.989h.802v-.404h-2.044v.404h.802v1.989z"/>
  <path fill="#6c6bbd" d="M127.144 110.439H73.066V13.251h54.078z"/>
  <path fill="#eb001b" d="M76.53 61.837c0-19.715 9.23-37.276 23.605-48.593A61.538 61.538 0 0061.94.028C27.807.028.14 27.701.14 61.838s27.668 61.808 61.8 61.808a61.538 61.538 0 0038.196-13.215C85.761 99.114 76.53 81.552 76.53 61.837"/>
  <path fill="#0099df" d="M200.077 61.837c0 34.137-27.668 61.81-61.8 61.81a61.557 61.557 0 01-38.2-13.216c14.378-11.317 23.609-28.879 23.609-48.594s-9.231-37.276-23.61-48.593a61.557 61.557 0 0138.2-13.216c34.133 0 61.801 27.673 61.801 61.81"/>
  <path fill="#231f20" d="M145.377 137.883c.72 0 1.753.138 2.543.448l-1.1 3.364c-.755-.31-1.51-.412-2.233-.412-2.334 0-3.501 1.509-3.501 4.22v9.203h-3.572v-16.41h3.537v1.992c.927-1.442 2.267-2.405 4.326-2.405m-13.196 3.675h-5.835v7.415c0 1.646.581 2.747 2.37 2.747.927 0 2.094-.31 3.155-.928l1.03 3.054c-1.132.79-2.916 1.273-4.46 1.273-4.225 0-5.699-2.268-5.699-6.08v-7.481h-3.332v-3.262h3.332v-4.979h3.604v4.98h5.835zm-45.697 3.501c.38-2.37 1.82-3.985 4.362-3.985 2.298 0 3.776 1.443 4.153 3.985zm12.225 1.442c-.036-5.116-3.195-8.618-7.797-8.618-4.805 0-8.17 3.502-8.17 8.618 0 5.215 3.502 8.614 8.414 8.614 2.472 0 4.735-.617 6.728-2.299l-1.753-2.645c-1.371 1.1-3.124 1.718-4.77 1.718-2.3 0-4.394-1.065-4.909-4.016h12.186c.035-.448.07-.892.07-1.372m15.688-4.016c-.994-.62-3.018-1.41-5.113-1.41-1.957 0-3.124.722-3.124 1.925 0 1.096 1.234 1.407 2.779 1.611l1.682.24c3.572.518 5.733 2.027 5.733 4.912 0 3.124-2.747 5.356-7.482 5.356-2.68 0-5.152-.688-7.109-2.13l1.682-2.782c1.202.927 2.99 1.717 5.462 1.717 2.437 0 3.741-.72 3.741-1.992 0-.924-.927-1.442-2.884-1.714l-1.682-.24c-3.674-.518-5.667-2.165-5.667-4.84 0-3.262 2.68-5.255 6.834-5.255 2.61 0 4.979.586 6.692 1.718zm44.031-1.21c-.735 0-1.414.13-2.047.385-.629.26-1.175.62-1.635 1.084s-.821 1.022-1.084 1.67-.393 1.364-.393 2.142c0 .782.13 1.493.393 2.142s.624 1.206 1.084 1.67 1.006.825 1.635 1.084c.633.26 1.312.386 2.047.386s1.419-.126 2.048-.386a4.908 4.908 0 001.642-1.084 4.997 4.997 0 001.097-1.67c.263-.649.393-1.36.393-2.142 0-.778-.13-1.493-.393-2.141a4.997 4.997 0 00-1.097-1.67 4.908 4.908 0 00-1.642-1.085 5.394 5.394 0 00-2.048-.385m0-3.392c1.274 0 2.452.22 3.537.665a8.585 8.585 0 012.814 1.823 8.347 8.347 0 011.858 2.743c.448 1.057.672 2.204.672 3.442s-.224 2.385-.672 3.443a8.364 8.364 0 01-1.858 2.746c-.79.774-1.73 1.38-2.814 1.824-1.085.44-2.263.66-3.537.66s-2.452-.22-3.536-.66c-1.085-.444-2.016-1.05-2.802-1.824s-1.403-1.693-1.851-2.746c-.448-1.058-.672-2.205-.672-3.443s.224-2.385.672-3.442c.448-1.053 1.065-1.969 1.85-2.743s1.718-1.383 2.803-1.823c1.084-.444 2.263-.665 3.536-.665m-92.802 8.618c0-2.884 1.89-5.254 4.98-5.254 2.95 0 4.943 2.268 4.943 5.254s-1.993 5.25-4.944 5.25c-3.089 0-4.979-2.366-4.979-5.25m13.286 0v-8.205h-3.568v1.992c-1.135-1.477-2.849-2.405-5.183-2.405-4.602 0-8.205 3.604-8.205 8.618 0 5.01 3.603 8.618 8.205 8.618 2.334 0 4.048-.928 5.183-2.405v1.992h3.568zm-20.115 8.205v-10.3c0-3.878-2.472-6.487-6.453-6.523-2.094-.035-4.26.617-5.769 2.92-1.131-1.82-2.92-2.92-5.426-2.92-1.749 0-3.466.515-4.806 2.437v-2.024h-3.568v16.41h3.603v-9.097c0-2.849 1.58-4.362 4.016-4.362 2.37 0 3.572 1.545 3.572 4.327v9.132h3.604v-9.097c0-2.849 1.65-4.362 4.016-4.362 2.44 0 3.607 1.545 3.607 4.327v9.132zM171.155 153.476v.405h.374c.082 0 .153-.02.2-.051.051-.032.079-.087.079-.153s-.028-.118-.079-.15a.337.337 0 00-.2-.05zm.378-.283c.192 0 .342.044.448.13s.157.204.157.354c0 .125-.04.228-.126.31a.624.624 0 01-.358.15l.496.57h-.386l-.46-.567h-.149v.566h-.322v-1.513zm-.099 2.032c.177 0 .342-.032.492-.098a1.252 1.252 0 00.77-1.171c0-.177-.036-.342-.098-.495-.067-.154-.158-.291-.272-.405s-.247-.205-.4-.267c-.15-.067-.315-.099-.492-.099s-.345.032-.499.099a1.209 1.209 0 00-.676.672c-.066.153-.098.318-.098.495s.032.342.098.495c.063.157.154.29.268.405s.251.204.408.27c.154.067.323.099.5.099m0-2.9a1.6 1.6 0 01.644.13 1.62 1.62 0 01.884.868c.086.196.13.409.13.633s-.044.436-.13.632-.204.37-.354.515c-.153.15-.326.267-.53.354a1.6 1.6 0 01-.645.13 1.657 1.657 0 01-1.186-.484c-.15-.145-.268-.318-.354-.515s-.13-.408-.13-.632.044-.437.13-.633a1.6 1.6 0 01.354-.519c.149-.15.326-.267.53-.35.204-.086.42-.13.656-.13"/>
</svg>
