<svg xmlns="http://www.w3.org/2000/svg" viewBox="0 0 1000 776">
  <title>Mastercard</title>
  <path d="M181.976 774.255v-51.502c0-19.743-12.018-32.619-32.619-32.619-10.3 0-21.459 3.434-29.184 14.593-6.009-9.442-14.593-14.593-27.468-14.593-8.584 0-17.168 2.575-24.035 12.018v-10.3H50.644v82.403H68.67v-45.494c0-14.592 7.725-21.46 19.743-21.46 12.017 0 18.026 7.726 18.026 21.46v45.494h18.026v-45.494c0-14.592 8.583-21.46 19.742-21.46 12.017 0 18.026 7.726 18.026 21.46v45.494h19.743zm266.955-82.404h-29.185v-24.893H401.72v24.893h-16.31v16.31h16.31v37.768c0 18.884 7.725 30.043 28.326 30.043 7.726 0 16.31-2.575 22.318-6.009l-5.15-15.45c-5.15 3.433-11.159 4.291-15.45 4.291-8.585 0-12.018-5.15-12.018-13.734v-36.91h29.185v-16.309zm152.79-1.717c-10.3 0-17.167 5.15-21.459 12.018v-10.3h-18.026v82.403h18.026v-46.352c0-13.734 6.009-21.46 17.168-21.46 3.433 0 7.725.859 11.159 1.717l5.15-17.167c-3.434-.859-8.584-.859-12.017-.859zm-230.903 8.584c-8.583-6.009-20.6-8.584-33.476-8.584-20.601 0-34.335 10.3-34.335 26.61 0 13.734 10.3 21.46 28.326 24.035l8.584.858c9.442 1.717 14.592 4.292 14.592 8.584 0 6.008-6.867 10.3-18.884 10.3s-21.46-4.292-27.468-8.584l-8.584 13.734c9.442 6.867 22.318 10.3 35.194 10.3 24.034 0 37.768-11.158 37.768-26.609 0-14.592-11.159-22.318-28.326-24.893l-8.584-.858c-7.725-.858-13.734-2.575-13.734-7.725 0-6.009 6.009-9.443 15.45-9.443 10.301 0 20.602 4.292 25.752 6.867l7.725-14.592zm478.974-8.584c-10.3 0-17.167 5.15-21.46 12.018v-10.3h-18.025v82.403h18.026v-46.352c0-13.734 6.009-21.46 17.167-21.46 3.434 0 7.726.859 11.16 1.717l5.15-17.167c-3.434-.859-8.584-.859-12.018-.859zm-230.044 42.92c0 24.892 17.167 42.918 43.777 42.918 12.017 0 20.6-2.575 29.185-9.442l-8.584-14.593c-6.867 5.15-13.734 7.726-21.46 7.726-14.592 0-24.893-10.3-24.893-26.61 0-15.45 10.301-25.751 24.893-26.61 7.726 0 14.593 2.576 21.46 7.726l8.584-14.593c-8.584-6.867-17.168-9.442-29.185-9.442-26.61 0-43.777 18.026-43.777 42.92zm166.525 0V691.85h-18.026v10.3c-6.009-7.725-14.593-12.017-25.752-12.017-23.176 0-41.202 18.026-41.202 42.92 0 24.892 18.026 42.918 41.202 42.918 12.018 0 20.601-4.292 25.752-12.017v10.3h18.026v-41.202zm-66.095 0c0-14.593 9.442-26.61 24.892-26.61 14.593 0 24.893 11.158 24.893 26.61 0 14.592-10.3 26.609-24.893 26.609-15.45-.859-24.892-12.017-24.892-26.61zm-215.453-42.92c-24.034 0-41.202 17.168-41.202 42.92 0 25.75 17.168 42.918 42.06 42.918 12.018 0 24.035-3.434 33.477-11.159l-8.584-12.876c-6.867 5.15-15.45 8.584-24.034 8.584-11.159 0-22.318-5.15-24.893-19.742h60.945v-6.868c.858-26.61-14.593-43.777-37.769-43.777zm0 15.451c11.159 0 18.884 6.867 20.601 19.743h-42.919c1.717-11.16 9.443-19.743 22.318-19.743zm447.214 27.468v-73.82h-18.026v42.919c-6.008-7.726-14.592-12.018-25.751-12.018-23.176 0-41.202 18.026-41.202 42.92 0 24.892 18.026 42.918 41.202 42.918 12.017 0 20.601-4.292 25.751-12.017v10.3h18.026v-41.202zm-66.095 0c0-14.592 9.442-26.61 24.893-26.61 14.592 0 24.893 11.16 24.893 26.61 0 14.593-10.3 26.61-24.893 26.61-15.45-.859-24.893-12.017-24.893-26.61zm-602.58 0v-41.202h-18.026v10.3c-6.008-7.725-14.592-12.017-25.751-12.017-23.176 0-41.202 18.026-41.202 42.92 0 24.892 18.026 42.918 41.202 42.918 12.017 0 20.601-4.292 25.751-12.017v10.3h18.026v-41.202zm-66.953 0c0-14.592 9.442-26.61 24.893-26.61 14.592 0 24.893 11.16 24.893 26.61 0 14.593-10.3 26.61-24.893 26.61-15.451-.859-24.893-12.017-24.893-26.61z"/>
  <path fill="#ff5f00" d="M364.81 66.095h270.388v485.84H364.81z"/>
  <path fill="#eb001b" d="M381.977 309.015c0-98.713 46.353-186.267 117.598-242.92C447.214 24.893 381.119 0 309.015 0 138.2 0 0 138.198 0 309.015c0 170.817 138.199 309.016 309.015 309.016 72.104 0 138.199-24.893 190.56-66.095-71.245-55.795-117.598-144.207-117.598-242.92z" class="st2"/>
  <path fill="#f79e1b" d="M1000.008 309.015c0 170.817-138.198 309.016-309.015 309.016-72.104 0-138.199-24.893-190.56-66.095 72.104-56.653 117.598-144.207 117.598-242.92 0-98.714-46.353-186.268-117.598-242.921C552.794 24.893 618.89 0 690.993 0c170.817 0 309.015 139.057 309.015 309.015z" class="st3"/>
</svg>
