<svg xmlns="http://www.w3.org/2000/svg" viewBox="0 0 696 197">
  <title>Mir</title>
  <defs>
    <linearGradient id="a" x1="0%" x2="100%" y1="50%" y2="50%">
      <stop offset="0%" stop-color="#00A0E5"/>
      <stop offset="100%" stop-color="#0077C3"/>
    </linearGradient>
  </defs>
  <path fill="#37A72E" d="M502 89v108h60v-64h68c28.62-.212 52.93-18.494 62.098-44H502z"/>
  <path fill="url(#a)" d="M494 0c3.495 44.144 45.258 79 96.263 79h104.328a66.87 66.87 0 001.172-12.5c0-36.568-29.503-66.23-66-66.498L494 0z"/>
  <path fill="#37A72E" d="M405.2 77.95l.047-.101.006.001a3.6 3.6 0 016.746 1.65H412V196h60V0h-60c-7.609.253-16.205 5.837-19.401 12.69L344.85 115.087c-.117.419-.302.81-.54 1.16l-.016.034-.007-.002A4 4 0 01337 114V.001h-60v196h60v-.022c7.525-.393 15.92-5.914 19.07-12.668l49.007-105.096c.037-.09.078-.178.123-.264zM181.153 81.3L146.086 196h-43.163L67.835 81.23A3.951 3.951 0 0060 82v114H0V0h66.838c11.04 0 22.61 8.568 25.835 19.12l29.2 95.51c1.454 4.753 3.81 4.748 5.262 0l29.2-95.51C159.566 8.56 171.13 0 182.172 0H249v196h-60V82v-.05a3.95 3.95 0 00-7.847-.65z"/>
</svg>
