<svg xmlns="http://www.w3.org/2000/svg" viewBox="0 0 282 93">
  <title>Visa</title>
  <path fill="#0023a0" d="M184.19.983c-22.429 0-38.184 11.924-38.323 28.974-.142 12.631 11.267 19.674 19.848 23.872 8.853 4.292 11.81 7.05 11.781 10.89-.088 5.884-7.084 8.565-13.585 8.565-9.063 0-13.895-1.323-21.322-4.59l-2.945-1.4-3.172 19.652c5.303 2.445 15.095 4.564 25.275 4.675 23.801 0 39.287-11.787 39.471-29.987.094-10.018-5.962-17.6-19.056-23.86-7.904-4.07-12.792-6.77-12.719-10.893.006-3.644 4.101-7.55 12.991-7.55 7.425-.125 12.764 1.58 16.968 3.375l2.022 1.009 3.085-19.036c-4.48-1.77-11.55-3.695-20.32-3.695zm-70.41 1.532L99.594 90.323h22.665l14.194-87.81h-22.67zM80.575 2.6L58.381 62.444l-2.366-12.16c-5.527-14.911-17.492-30.552-31.426-36.891l20.302 76.846 24-.011L104.581 2.6H80.575zm164.57.006c-5.43 0-9.5 1.547-11.897 7.288l-33.657 80.458h23.813s3.893-10.83 4.774-13.201c2.599 0 25.727.05 29.027.05.701 3.061 2.76 13.15 2.76 13.15h21.056L262.66 2.606h-17.515zm1.602 23.673l1.51 7.57s4.358 20.95 5.267 25.338h-18.822c1.883-5.038 9.032-24.544 9.032-24.544-.14.239 1.86-5.079 3.013-8.365z"/>
  <path fill="#ffab00" d="M37.798 2.554H1.23l-.213 1.51c28.431 7.272 47.188 25.128 54.998 46.243L48.068 9.95c-1.366-5.55-5.345-7.2-10.27-7.396"/>
</svg>
