<svg width="202px" height="36px" viewBox="0 0 202 36" xmlns="http://www.w3.org/2000/svg">
    <path d="M188.671875,1.875 L189.127829,1.87826325 C193.043767,1.93482617 196.032407,2.72670718 198.09375,4.25390625 C200.234375,5.83984375 201.304688,8.1640625 201.304688,11.2265625 C201.304688,12.8984375 200.875,14.3710938 200.015625,15.6445312 C199.15625,16.9179688 197.960938,17.8515625 196.429688,18.4453125 C198.179688,18.8828125 199.558594,19.765625 200.566406,21.09375 C201.574219,22.421875 202.078125,24.046875 202.078125,25.96875 C202.078125,29.25 201.03125,31.734375 198.9375,33.421875 C196.84375,35.109375 193.859375,35.96875 189.984375,36 L189.984375,36 L176.71875,36 L176.71875,1.875 L188.671875,1.875 Z M190.195312,21.140625 L183.75,21.140625 L183.75,30.3515625 L189.773438,30.3515625 C191.429688,30.3515625 192.722656,29.9570312 193.652344,29.1679688 C194.582031,28.3789062 195.046875,27.2890625 195.046875,25.8984375 C195.046875,22.7734375 193.429688,21.1875 190.195312,21.140625 L190.195312,21.140625 Z M188.671875,7.5703125 L183.75,7.5703125 L183.75,16.171875 L188.953125,16.171875 C192.5,16.109375 194.273438,14.6953125 194.273438,11.9296875 C194.273438,10.3828125 193.824219,9.26953125 192.925781,8.58984375 C192.027344,7.91015625 190.609375,7.5703125 188.671875,7.5703125 L188.671875,7.5703125 Z" id="Combined-Shape" fill="#8FD1FF" fill-rule="nonzero"></path>
    <path d="M156.023438,1.875 L156.520508,1.88125723 C159.320638,1.95217255 161.838542,2.62586806 164.074219,3.90234375 C166.441406,5.25390625 168.289062,7.17578125 169.617188,9.66796875 C170.945312,12.1601562 171.609375,14.9921875 171.609375,18.1640625 L171.609375,18.1640625 L171.609375,19.734375 L171.603335,20.2597656 C171.534879,23.218533 170.884549,25.8637153 169.652344,28.1953125 C168.347656,30.6640625 166.507812,32.578125 164.132812,33.9375 C161.757812,35.296875 159.078125,35.984375 156.09375,36 L156.09375,36 L145.523438,36 L145.523438,1.875 L156.023438,1.875 Z M156.023438,7.5703125 L152.554688,7.5703125 L152.554688,30.3515625 L155.953125,30.3515625 C158.703125,30.3515625 160.804688,29.453125 162.257812,27.65625 C163.710938,25.859375 164.453125,23.2890625 164.484375,19.9453125 L164.484375,19.9453125 L164.484375,18.140625 L164.480632,17.7114054 C164.423231,14.4542575 163.705729,11.9684245 162.328125,10.2539062 C160.890625,8.46484375 158.789062,7.5703125 156.023438,7.5703125 L156.023438,7.5703125 Z" id="Combined-Shape" fill="#8FD1FF" fill-rule="nonzero"></path>
    <path d="M118.101562,36.46875 C121.242188,36.46875 123.804688,35.7539062 125.789062,34.3242188 C127.773438,32.8945312 128.765625,31.0234375 128.765625,28.7109375 C128.765625,25.4765625 126.976562,23.203125 123.398438,21.890625 C122.242188,21.46875 120.820312,21.0898438 119.132812,20.7539062 C117.445312,20.4179688 116.246094,20.0195312 115.535156,19.5585938 C114.824219,19.0976562 114.46875,18.4921875 114.46875,17.7421875 C114.46875,16.9453125 114.78125,16.2890625 115.40625,15.7734375 C116.03125,15.2578125 116.914062,15 118.054688,15 C119.382812,15 120.359375,15.3164062 120.984375,15.9492188 C121.609375,16.5820312 121.921875,17.3828125 121.921875,18.3515625 L121.921875,18.3515625 L128.695312,18.3515625 C128.695312,15.9296875 127.730469,13.9609375 125.800781,12.4453125 C123.871094,10.9296875 121.296875,10.171875 118.078125,10.171875 C115.0625,10.171875 112.621094,10.9257812 110.753906,12.4335938 C108.886719,13.9414062 107.953125,15.8203125 107.953125,18.0703125 C107.953125,21.9296875 110.96875,24.4921875 117,25.7578125 C118.8125,26.1328125 120.128906,26.5585938 120.949219,27.0351562 C121.769531,27.5117188 122.179688,28.1640625 122.179688,28.9921875 C122.179688,29.7890625 121.847656,30.4335938 121.183594,30.9257812 C120.519531,31.4179688 119.539062,31.6640625 118.242188,31.6640625 C116.851562,31.6640625 115.742188,31.34375 114.914062,30.703125 C114.085938,30.0625 113.640625,29.140625 113.578125,27.9375 L113.578125,27.9375 L107.15625,27.9375 C107.15625,29.46875 107.625,30.8945312 108.5625,32.2148438 C109.5,33.5351562 110.792969,34.5742188 112.441406,35.3320312 C114.089844,36.0898438 115.976562,36.46875 118.101562,36.46875 Z" id="Path" fill="#FF9494" fill-rule="nonzero"></path>
    <polygon id="Path" fill="#AFFFCB" fill-rule="nonzero" points="89.578125 36 89.578125 28.265625 92.015625 25.828125 98.53125 36 106.3125 36 96.3515625 21.2109375 105.515625 10.640625 97.3828125 10.640625 90.890625 18.2578125 89.578125 19.9453125 89.578125 0 82.8046875 0 82.8046875 36"></polygon>
    <path d="M62.5546875,36 L62.5546875,18.1171875 C63.5078125,16.4921875 64.9375,15.6796875 66.84375,15.6796875 C68.296875,15.6796875 69.3359375,16.0039062 69.9609375,16.6523438 C70.5859375,17.3007812 70.8984375,18.34375 70.8984375,19.78125 L70.8984375,19.78125 L70.8984375,36 L77.671875,36 L77.671875,19.6171875 C77.640625,16.4765625 76.96875,14.1171875 75.65625,12.5390625 C74.34375,10.9609375 72.34375,10.171875 69.65625,10.171875 C66.609375,10.171875 64.1796875,11.3046875 62.3671875,13.5703125 L62.3671875,13.5703125 L62.15625,10.640625 L55.78125,10.640625 L55.78125,36 L62.5546875,36 Z" id="Path" fill="#FFF17F" fill-rule="nonzero"></path>
    <path d="M40.5234375,10.171875 C43.6484375,10.171875 46.1289062,10.9570312 47.9648438,12.5273438 C49.8007812,14.0976562 50.71875,16.3046875 50.71875,19.1484375 L50.71875,19.1484375 L50.71875,30.140625 L50.7248324,30.559175 C50.7750054,32.7590019 51.1089154,34.4397978 51.7265625,35.6015625 L51.7265625,35.6015625 L51.7265625,36 L44.8828125,36 L44.7696533,35.7645264 C44.5150146,35.1988525 44.3261719,34.5195312 44.203125,33.7265625 C42.5625,35.5546875 40.4296875,36.46875 37.8046875,36.46875 C35.3203125,36.46875 33.2617188,35.75 31.6289062,34.3125 C29.9960938,32.875 29.1796875,31.0625 29.1796875,28.875 C29.1796875,26.1875 30.1757812,24.125 32.1679688,22.6875 C34.1601562,21.25 37.0390625,20.5234375 40.8046875,20.5078125 L40.8046875,20.5078125 L43.921875,20.5078125 L43.921875,19.0546875 L43.9165357,18.7884153 C43.8738212,17.7399686 43.5748197,16.891226 43.0195312,16.2421875 C42.4179688,15.5390625 41.46875,15.1875 40.171875,15.1875 C39.03125,15.1875 38.1367188,15.4609375 37.4882812,16.0078125 C36.8398438,16.5546875 36.515625,17.3046875 36.515625,18.2578125 L36.515625,18.2578125 L29.7421875,18.2578125 L29.7491231,17.9447545 C29.8092315,16.5954241 30.2600446,15.3404018 31.1015625,14.1796875 C32.0078125,12.9296875 33.2890625,11.9492188 34.9453125,11.2382812 C36.6015625,10.5273438 38.4609375,10.171875 40.5234375,10.171875 Z M43.921875,24.46875 L41.390625,24.46875 L41.0867553,24.4719783 C37.8920813,24.5408488 36.1886837,25.7116477 35.9765625,27.984375 L35.9765625,27.984375 L35.953125,28.3828125 L35.9593099,28.5906576 C36.0046658,29.3414171 36.2994792,29.9674479 36.84375,30.46875 C37.4375,31.015625 38.25,31.2890625 39.28125,31.2890625 C40.28125,31.2890625 41.203125,31.0664062 42.046875,30.6210938 C42.890625,30.1757812 43.515625,29.578125 43.921875,28.828125 L43.921875,28.828125 L43.921875,24.46875 Z" id="Combined-Shape" fill="#FFB0F6" fill-rule="nonzero"></path>
    <path d="M13.265625,36 C17.140625,35.96875 20.125,35.109375 22.21875,33.421875 C24.3125,31.734375 25.359375,29.25 25.359375,25.96875 C25.359375,24.046875 24.8554688,22.421875 23.8476562,21.09375 C22.8398438,19.765625 21.4609375,18.8828125 19.7109375,18.4453125 C21.2421875,17.8515625 22.4375,16.9179688 23.296875,15.6445312 C24.15625,14.3710938 24.5859375,12.8984375 24.5859375,11.2265625 C24.5859375,8.1640625 23.515625,5.83984375 21.375,4.25390625 C19.234375,2.66796875 16.09375,1.875 11.953125,1.875 L11.953125,1.875 L0,1.875 L0,36 L13.265625,36 Z M13.0546875,30.3515625 L7.03125,30.3515625 L7.03125,21.140625 L13.4765625,21.140625 C16.7109375,21.1875 18.328125,22.7734375 18.328125,25.8984375 C18.328125,27.2890625 17.8632812,28.3789062 16.9335938,29.1679688 C16.0039062,29.9570312 14.7109375,30.3515625 13.0546875,30.3515625 L13.0546875,30.3515625 Z M12.234375,16.171875 L7.03125,16.171875 L7.03125,7.5703125 L11.953125,7.5703125 C13.890625,7.5703125 15.3085938,7.91015625 16.2070312,8.58984375 C17.1054688,9.26953125 17.5546875,10.3828125 17.5546875,11.9296875 C17.5546875,14.6953125 15.78125,16.109375 12.234375,16.171875 L12.234375,16.171875 Z" id="Combined-Shape" fill="#92F4FF" fill-rule="nonzero"></path>
</svg>
